<svg id="Laag_1" data-name="Laag 1" xmlns="http://www.w3.org/2000/svg" xmlns:xlink="http://www.w3.org/1999/xlink" viewBox="0 0 853.58 981.31"><defs><style>.cls-1{fill:url(#Nieuwe_verloopstaal_1);}.cls-2{fill:url(#Nieuwe_verloopstaal_1-2);}.cls-3{fill:url(#Nieuwe_verloopstaal_1-3);}.cls-4{fill:url(#Nieuwe_verloopstaal_1-4);}.cls-5{fill:url(#Nieuwe_verloopstaal_1-5);}.cls-6{fill:url(#Naamloos_verloop_13);}.cls-7{fill:url(#Naamloos_verloop_13-2);}.cls-8{fill:#e6331b;}</style><linearGradient id="Nieuwe_verloopstaal_1" x1="229.35" y1="836.93" x2="844.26" y2="378.28" gradientUnits="userSpaceOnUse"><stop offset="0" stop-color="#e53326"/><stop offset="0.52" stop-color="#e73452"/><stop offset="1" stop-color="#f39200"/></linearGradient><linearGradient id="Nieuwe_verloopstaal_1-2" x1="273.15" y1="895.65" x2="888.05" y2="436.99" xlink:href="#Nieuwe_verloopstaal_1"/><linearGradient id="Nieuwe_verloopstaal_1-3" x1="374.8" y1="1031.93" x2="989.7" y2="573.27" xlink:href="#Nieuwe_verloopstaal_1"/><linearGradient id="Nieuwe_verloopstaal_1-4" x1="277.8" y1="901.89" x2="892.71" y2="443.23" xlink:href="#Nieuwe_verloopstaal_1"/><linearGradient id="Nieuwe_verloopstaal_1-5" x1="354.53" y1="1004.76" x2="969.43" y2="546.1" xlink:href="#Nieuwe_verloopstaal_1"/><linearGradient id="Naamloos_verloop_13" x1="239.33" y1="850.3" x2="854.23" y2="391.65" gradientUnits="userSpaceOnUse"><stop offset="0" stop-color="#e6331b"/><stop offset="0.52" stop-color="#e83368"/><stop offset="1" stop-color="#f59c00"/></linearGradient><linearGradient id="Naamloos_verloop_13-2" x1="239.15" y1="850.07" x2="854.05" y2="391.41" xlink:href="#Naamloos_verloop_13"/></defs><title>CB-LOGO-ONDERDEELVAN_CMYK-2018</title><path class="cls-1" d="M319,780.59c3.62-2.29,4.37-5.59,2.08-9.23L316.44,764l-22.8,14.4,4.65,7.36c2.28,3.62,5.58,4.37,9.21,2.07Z" transform="translate(-169.77 -15.52)"/><path class="cls-2" d="M359.56,819.53l-16.43,17.93,6.49,5.95c3.16,2.9,6.54,2.75,9.44-.4l7.41-8.07c2.9-3.16,2.75-6.55-.41-9.44Z" transform="translate(-169.77 -15.52)"/><path class="cls-3" d="M560,881.69l-8.68.62,1.91,26.89,8.68-.61c4.27-.3,6.49-2.86,6.19-7.14l-1-13.57C566.87,883.61,564.31,881.38,560,881.69Z" transform="translate(-169.77 -15.52)"/><path class="cls-4" d="M334.78,846.55l-17.88,19.5,7.61,7c3.16,2.91,6.54,2.75,9.43-.4L342.8,863c2.89-3.16,2.75-6.53-.41-9.43Z" transform="translate(-169.77 -15.52)"/><path class="cls-5" d="M490.52,880.24l-11.73-1.64L470.3,939l12.48,1.75c3.12.43,4.34-1,4.75-3.92l7.13-50.78C495.19,882.31,494.26,880.77,490.52,880.24Z" transform="translate(-169.77 -15.52)"/><path class="cls-6" d="M525.49,827.75c-61.81-4.89-114.69-32.51-148.9-77.77-73-96.56-40.15-244.86,73.24-330.58L348.34,285.14c-187.42,141.69-235,395.74-106,566.34,63.63,84.15,159.47,135.31,269.89,144A429.51,429.51,0,0,0,653.54,983a461.06,461.06,0,0,0,162.57-79.08L714.62,769.66C658.21,812.3,591,832.93,525.49,827.75ZM325.66,349.58l6.35-5.17c9.59-7.79,18.88-6.74,26.59,2.73l31.82,39.12c7.71,9.48,6.74,18.88-2.74,26.59L381.32,418c-9.48,7.71-18.8,6.84-26.59-2.74l-4.3-5.28,11.74-9.54,3.42,4.2c2.7,3.32,6.07,3.67,9.4,1l1.85-1.52c3.32-2.7,3.67-6.07,1-9.39l-30.06-37c-2.71-3.33-6.08-3.68-9.4-1l-1.86,1.51c-3.32,2.71-3.66,6.08-1,9.4l3.65,4.49-11.73,9.54-4.53-5.57C315.2,366.7,316.08,357.37,325.66,349.58Zm-58.15,69.07,6.5-8.83c7.32-9.94,16.57-11.26,26.42-4l55.8,41.08-9,12.17-55.5-40.84c-3.45-2.55-6.8-2-9.34,1.42l-3.05,4.16c-2.55,3.45-2,6.79,1.41,9.33L336.29,474l-9,12.17-55.8-41.06C261.69,437.83,260.19,428.6,267.51,418.65Zm-30.7,52.44,80.64,35.72-6.13,13.83L242.2,490,234,508.57l-11.53-5.11Zm-26.92,73.53,73.22,16.67,3.41-15,12.78,2.9-10.18,44.72L276.34,591l3.42-15-73.22-16.68ZM200.6,644l-.5-10.95c-.57-12.33,5.79-19.18,18-19.74l69.21-3.22.7,15.11-68.83,3.19c-4.29.19-6.57,2.7-6.36,7l.23,5.16c.2,4.28,2.7,6.56,7,6.37l68.83-3.2.71,15.11L220.36,662C208.15,662.59,201.18,656.36,200.6,644ZM220,735.08l-3.6-10.35c-4-11.66.11-20,11.65-24.05L293.48,678l5,14.28-65.09,22.61c-4,1.41-5.52,4.45-4.12,8.5l1.7,4.87c1.41,4,4.45,5.52,8.49,4.12l65.09-22.6,5,14.27L244,746.73C232.48,750.74,224,746.74,220,735.08Zm49.75,94.68-7.94-12.57,25-24.14-4.64-7.35-28.76,18.18-8.08-12.79L319.86,744l14.27,22.58c6.6,10.44,4.56,19.48-5.88,26.08l-13.85,8.75c-6.6,4.17-12.7,4.9-18.09,2Zm83.79,25.44c3.64,3.86,6.81,11,1.36,17l-10,10.87c-8.35,9.09-17.61,9.5-26.71,1.15L297.32,865l59.61-65,19.79,18.14c9,8.26,9.49,17.6,1.15,26.7l-7.5,8.17C364.24,859.73,357.84,858.13,353.52,855.2Zm86.56,13.92-22.9-9.92-9.95,23,20.69,9-5,11.55-20.69-9L392.17,917l22.88,9.9-5,11.57-36.77-15.92,35-80.93,36.76,15.92Zm69.54,19.15-7.22,51.42c-1.68,12-8.29,16.39-20.15,14.73l-28.81-4L465.71,863l27,3.79C505.26,868.57,511.6,874.18,509.62,888.27Zm62.74,67.33-9.45-33.44-8.67.62,2.41,33.94-15.08,1.07-6.25-88L562,867.91c12.32-.88,19.32,5.19,20.19,17.51l1.16,16.34c.55,7.8-1.69,13.52-6.75,16.91l10.62,35.87Zm52.24-7.54L606,861.81l14.79-3.19,18.58,86.25Zm53.88-13.86-7.73,2.72-4.52-12.83,5.47-1.93c3-1,3.72-3.44,2.76-6.18l-23.17-65.7,14.25-5,23.09,65.47C692.78,922.48,689.29,930.38,678.48,934.2Zm50-107.46-19.72,12.91,11.94,18.24,17.72-11.6,7.45,11.4-17.71,11.59,21.53,32.91L737,910.46l-48.38-73.92L721,815.35Z" transform="translate(-169.77 -15.52)"/><path class="cls-7" d="M977.38,476.45c-33.62-44.47-79-71.92-131.75-79.84,6.65-53.2-7.72-104.84-41.93-150.1C713,126.56,551.8,131.34,382.94,259L484.43,393.24c17.45-13.19,63.05-45.54,109.91-59.15,49.93-14.51,66.78,2.89,75.11,13.92,9.58,12.68,9.44,23.26,8.58,32.35-2.46,26.13-27.63,57-63.72,84-30.95,23.12-54.46,41.57-57.34,44.13A84.15,84.15,0,0,0,657,643c3.27-2,27.59-17.68,58.09-42.64,36.06-29.49,71.67-42.21,99.9-38.23,8.77,1.24,19.52,4.32,28.18,15.77,6.62,8.77,20.41,27-9,75-22.34,36.38-59.68,71.54-84.87,90.58L850.71,877.75C986.92,774.78,1078.91,610.76,977.38,476.45Z" transform="translate(-169.77 -15.52)"/><path class="cls-8" d="M489.91,15.52c12.78,0,19.56,6.78,19.56,19.55V87.21c0,12.64-6.78,19.55-19.56,19.55H477.8c-12.78,0-19.56-6.91-19.56-19.55V35.07c0-12.64,6.91-19.55,19.56-19.55Zm-9.12,13c-4.43,0-6.91,2.47-6.91,6.9V86.82c0,4.43,2.48,6.91,6.91,6.91h6.13c4.43,0,6.91-2.48,6.91-6.91V35.46c0-4.43-2.48-6.9-6.91-6.9Z" transform="translate(-169.77 -15.52)"/><path class="cls-8" d="M566.42,106.76,544.65,54.89v51.87H529V15.52h14.2l21,52.53V15.52h15.64v91.24Z" transform="translate(-169.77 -15.52)"/><path class="cls-8" d="M628.85,15.52c13.16,0,20.46,4.82,20.46,19.55V88.78c0,12.51-6.12,18-18.51,18H600.69V15.52ZM616.33,92.69h13c3.26,0,4.29-1.7,4.29-4.7v-53c0-3.91-1.17-5.34-5.07-5.34H616.33Z" transform="translate(-169.77 -15.52)"/><path class="cls-8" d="M684.49,28.69V54.62h23.33v13H684.49v26.2h25.82v13H668.85V15.65h41.46v13Z" transform="translate(-169.77 -15.52)"/><path class="cls-8" d="M757.35,15.52c12.78,0,19.55,6.78,19.55,19.55V52c0,8.08-2.73,13.81-8.21,16.94l8.34,37.8H761.65l-7.3-35.19h-9v35.19H729.72V15.52Zm-12,42h9c4.43,0,6.91-2.47,6.91-6.9V36.51c0-4.43-2.48-6.91-6.91-6.91h-9Z" transform="translate(-169.77 -15.52)"/><path class="cls-8" d="M824.72,15.52c13.17,0,20.47,4.82,20.47,19.55V88.78c0,12.51-6.13,18-18.51,18H796.57V15.52ZM812.21,92.69h13c3.26,0,4.3-1.7,4.3-4.7v-53c0-3.91-1.17-5.34-5.08-5.34H812.21Z" transform="translate(-169.77 -15.52)"/><path class="cls-8" d="M880.38,28.69V54.62h23.33v13H880.38v26.2h25.8v13H864.74V15.65h41.44v13Z" transform="translate(-169.77 -15.52)"/><path class="cls-8" d="M941.37,28.69V54.62H964.7v13H941.37v26.2h25.81v13H925.73V15.65h41.45v13Z" transform="translate(-169.77 -15.52)"/><path class="cls-8" d="M1023.35,93.73v13H986.73V15.52h15.63V93.73Z" transform="translate(-169.77 -15.52)"/><path class="cls-8" d="M851.7,229.24,833.06,138h15l12.25,62.83L861,208l.65-7.17,12-62.83h15.12l-18.63,91.24Z" transform="translate(-169.77 -15.52)"/><path class="cls-8" d="M938.24,229.24l-5.07-22H913.22l-5.09,22H893.41L914.66,138h17.07L953,229.24Zm-7.81-35.58L923.26,157,916,193.66Z" transform="translate(-169.77 -15.52)"/><path class="cls-8" d="M1004.71,229.24,983,177.37v51.87H967.3V138h14.22l21,52.53V138h15.64v91.24Z" transform="translate(-169.77 -15.52)"/></svg>