<svg id="Laag_1" data-name="Laag 1" xmlns="http://www.w3.org/2000/svg" xmlns:xlink="http://www.w3.org/1999/xlink" viewBox="0 0 859.71 71.43"><defs><style>.cls-1{fill:url(#Nieuwe_verloopstaal_1);}.cls-2{fill:url(#Nieuwe_verloopstaal_1-2);}.cls-3{fill:url(#Nieuwe_verloopstaal_1-3);}.cls-4{fill:url(#Nieuwe_verloopstaal_1-4);}.cls-5{fill:url(#Nieuwe_verloopstaal_1-5);}.cls-6{fill:url(#Naamloos_verloop_13);}.cls-7{fill:url(#Naamloos_verloop_13-2);}.cls-8{fill:url(#Nieuwe_verloopstaal_1-6);}.cls-9{fill:url(#Nieuwe_verloopstaal_1-7);}.cls-10{fill:url(#Nieuwe_verloopstaal_1-8);}.cls-11{fill:#b20066;}.cls-12{fill:#fff;}.cls-13{fill:#ec7b04;}.cls-14{fill:#e52330;}.cls-15{fill:#0093b6;}.cls-16{fill:#1d1d1b;}</style><linearGradient id="Nieuwe_verloopstaal_1" x1="51.52" y1="552.65" x2="104" y2="513.5" gradientUnits="userSpaceOnUse"><stop offset="0" stop-color="#e53326"/><stop offset="0.52" stop-color="#e73452"/><stop offset="1" stop-color="#f39200"/></linearGradient><linearGradient id="Nieuwe_verloopstaal_1-2" x1="55.26" y1="557.66" x2="107.73" y2="518.52" xlink:href="#Nieuwe_verloopstaal_1"/><linearGradient id="Nieuwe_verloopstaal_1-3" x1="63.93" y1="569.29" x2="116.41" y2="530.15" xlink:href="#Nieuwe_verloopstaal_1"/><linearGradient id="Nieuwe_verloopstaal_1-4" x1="55.66" y1="558.19" x2="108.13" y2="519.05" xlink:href="#Nieuwe_verloopstaal_1"/><linearGradient id="Nieuwe_verloopstaal_1-5" x1="62.2" y1="566.97" x2="114.68" y2="527.83" xlink:href="#Nieuwe_verloopstaal_1"/><linearGradient id="Naamloos_verloop_13" x1="52.37" y1="553.79" x2="104.85" y2="514.65" gradientUnits="userSpaceOnUse"><stop offset="0" stop-color="#e6331b"/><stop offset="0.52" stop-color="#e83368"/><stop offset="1" stop-color="#f59c00"/></linearGradient><linearGradient id="Naamloos_verloop_13-2" x1="52.36" y1="553.77" x2="104.83" y2="514.63" xlink:href="#Naamloos_verloop_13"/><linearGradient id="Nieuwe_verloopstaal_1-6" x1="1.7" y1="35.72" x2="547.21" y2="35.72" xlink:href="#Nieuwe_verloopstaal_1"/><linearGradient id="Nieuwe_verloopstaal_1-7" x1="-272.38" y1="35.72" x2="1276.4" y2="35.72" xlink:href="#Nieuwe_verloopstaal_1"/><linearGradient id="Nieuwe_verloopstaal_1-8" x1="331.52" y1="35.72" x2="859.51" y2="35.72" xlink:href="#Nieuwe_verloopstaal_1"/></defs><title>CB-FOOTER-KLEUR-CMYK2018-297mm</title><path class="cls-1" d="M59.17,547.84a.52.52,0,0,0,.18-.79l-.4-.63L57,547.65l.39.63a.52.52,0,0,0,.79.18Z" transform="translate(9.09 -494.86)"/><path class="cls-2" d="M62.63,551.16l-1.4,1.53.55.51a.52.52,0,0,0,.81,0l.63-.69a.52.52,0,0,0,0-.81Z" transform="translate(9.09 -494.86)"/><path class="cls-3" d="M79.74,556.47l-.74,0,.16,2.29.74,0a.51.51,0,0,0,.53-.61L80.35,557A.51.51,0,0,0,79.74,556.47Z" transform="translate(9.09 -494.86)"/><path class="cls-4" d="M60.52,553.47,59,555.13l.65.6a.52.52,0,0,0,.81,0l.75-.82a.52.52,0,0,0,0-.81Z" transform="translate(9.09 -494.86)"/><path class="cls-5" d="M73.81,556.34l-1-.14-.73,5.16,1.07.15c.26,0,.37-.09.4-.34l.61-4.33C74.21,556.52,74.13,556.39,73.81,556.34Z" transform="translate(9.09 -494.86)"/><path class="cls-6" d="M76.79,551.86a17.27,17.27,0,0,1-12.7-6.63c-6.23-8.24-3.43-20.9,6.25-28.22l-8.67-11.45c-16,12.09-20.05,33.77-9,48.33a31.46,31.46,0,0,0,23,12.29,36.6,36.6,0,0,0,12.06-1.07,39.43,39.43,0,0,0,13.88-6.75l-8.67-11.45A23.7,23.7,0,0,1,76.79,551.86Zm-17.05-40.8.54-.45a1.45,1.45,0,0,1,2.27.24l2.72,3.34a1.46,1.46,0,0,1-.24,2.27l-.54.44a1.45,1.45,0,0,1-2.27-.24l-.37-.45,1-.81.3.36a.52.52,0,0,0,.8.08l.16-.13a.52.52,0,0,0,.08-.8l-2.57-3.16a.52.52,0,0,0-.8-.08l-.16.13a.52.52,0,0,0-.08.8l.31.39-1,.81-.38-.47A1.45,1.45,0,0,1,59.74,511.06Zm-5,5.89.55-.75a1.46,1.46,0,0,1,2.26-.35l4.76,3.51-.77,1-4.73-3.49a.53.53,0,0,0-.8.12l-.26.36a.52.52,0,0,0,.12.8l4.74,3.48-.77,1-4.76-3.5A1.45,1.45,0,0,1,54.78,517Zm-2.62,4.48,6.88,3-.52,1.18L52.62,523l-.7,1.58-1-.43Zm-2.3,6.27,6.25,1.42.29-1.28,1.09.25-.87,3.82-1.09-.25.29-1.28L49.57,529Zm-.79,8.48,0-.93a1.46,1.46,0,0,1,1.54-1.69l5.91-.27.06,1.29-5.88.27a.52.52,0,0,0-.54.6l0,.44a.51.51,0,0,0,.59.54l5.88-.27.06,1.29-5.91.27A1.44,1.44,0,0,1,49.07,536.18ZM50.72,544l-.31-.88a1.45,1.45,0,0,1,1-2.05L57,539.08l.43,1.22-5.56,1.93a.51.51,0,0,0-.35.72l.14.42a.52.52,0,0,0,.73.35l5.55-1.93.43,1.22L52.77,545A1.45,1.45,0,0,1,50.72,544ZM55,552,54.29,551l2.13-2.06-.4-.63-2.45,1.56-.69-1.09,6.36-4,1.22,1.93a1.45,1.45,0,0,1-.5,2.23l-1.18.74a1.49,1.49,0,0,1-1.55.18Zm7.15,2.18a1,1,0,0,1,.11,1.44l-.85.93a1.44,1.44,0,0,1-2.28.1l-1.78-1.63,5.09-5.55,1.69,1.55a1.44,1.44,0,0,1,.09,2.27l-.64.7A1,1,0,0,1,62.12,554.21Zm7.38,1.18-2-.84-.85,2,1.77.77-.43,1-1.77-.76-.86,2,2,.85-.43,1L63.8,560l3-6.9,3.14,1.36ZM75.44,557l-.62,4.39c-.14,1-.7,1.4-1.72,1.25l-2.46-.34,1-7.46,2.3.33C75.07,555.35,75.61,555.83,75.44,557Zm5.35,5.74-.8-2.85-.74.05.2,2.9-1.28.09-.54-7.51,2.28-.16a1.44,1.44,0,0,1,1.72,1.49l.1,1.4a1.48,1.48,0,0,1-.58,1.44l.91,3.06Zm4.46-.64-1.58-7.36,1.26-.27,1.58,7.36Zm4.6-1.18-.66.23-.39-1.09.47-.17a.38.38,0,0,0,.24-.53l-2-5.6,1.22-.43,2,5.58A1.38,1.38,0,0,1,89.85,561Zm4.26-9.17-1.68,1.1,1,1.56,1.51-1,.64,1-1.51,1,1.83,2.81-1.08.7-4.13-6.31,2.77-1.8Z" transform="translate(9.09 -494.86)"/><path class="cls-7" d="M115.36,521.88a17.08,17.08,0,0,0-11.25-6.81,17.29,17.29,0,0,0-3.57-12.81C92.8,492,79,492.43,64.63,503.32l8.66,11.46a32.42,32.42,0,0,1,9.38-5c4.26-1.23,5.7.25,6.41,1.19a3.56,3.56,0,0,1,.73,2.76c-.21,2.23-2.36,4.87-5.44,7.17-2.64,2-4.64,3.55-4.89,3.76A7.18,7.18,0,0,0,88,536.1a52.55,52.55,0,0,0,5-3.64c3.08-2.52,6.12-3.6,8.53-3.26a3.42,3.42,0,0,1,2.4,1.34c.57.75,1.74,2.31-.77,6.4a31.41,31.41,0,0,1-7.24,7.73l8.66,11.46C116.17,547.34,124,533.35,115.36,521.88Z" transform="translate(9.09 -494.86)"/><rect class="cls-8" y="34.88" width="51.91" height="1.68" rx="0.39"/><rect class="cls-9" x="131.8" y="34.88" width="535.09" height="1.68" rx="0.39"/><rect class="cls-10" x="809.46" y="34.88" width="50.24" height="1.68" rx="0.39"/><circle class="cls-11" cx="738.18" cy="35.72" r="21.34"/><path class="cls-12" d="M729.33,529.11c-.09.3-.17.52-.21.69s0,.19,0,.28h0a1.51,1.51,0,0,0,0-.28,5.83,5.83,0,0,0-.21-.69l-1.52-4.5h-3.73v1.57h1.05l-.5,6h-1v1.7h4.24v-1.7h-.93l.22-3.37a5,5,0,0,0,0-.67l0-.38h.05c0,.12,0,.24.07.36s.12.44.18.64l1.23,3.42h2l1.23-3.42a2.68,2.68,0,0,0,.18-.64,2.29,2.29,0,0,0,.07-.36h.05l0,.38c0,.21,0,.47,0,.67l.22,3.37h-.93v1.7h4.25v-1.7h-1l-.5-6h1.05v-1.57h-3.73Z" transform="translate(9.09 -494.86)"/><path class="cls-12" d="M729,517.26a11.78,11.78,0,0,0-7.41,20.94v2.7l7.64,3.48,7.55-3.48v-3l0,0a11.79,11.79,0,0,0-7.83-20.6Zm7.83,16.48a9.12,9.12,0,0,1-15.19.68,9,9,0,0,1-1.76-5.37,9.13,9.13,0,1,1,16.95,4.69Z" transform="translate(9.09 -494.86)"/><circle class="cls-13" cx="784.49" cy="35.72" r="21.34"/><circle class="cls-14" cx="691.87" cy="35.72" r="21.34"/><path class="cls-15" d="M690.76,520.58,688.3,523l2.46,2.46,2.45-2.46ZM689.9,523l.86-.86.86.86-.86.87Z" transform="translate(9.09 -494.86)"/><path class="cls-12" d="M686.94,516.75l-2.46,2.46,2.46,2.45,2.45-2.45Zm-.87,2.46.87-.87.86.87-.86.86Z" transform="translate(9.09 -494.86)"/><path class="cls-15" d="M675.47,520.58,673,523l2.45,2.46,2.46-2.46Zm-.86,2.45.86-.86.87.86-.87.87Z" transform="translate(9.09 -494.86)"/><path class="cls-15" d="M690.76,526.62l-2.46,2.46,2.46,2.45,2.45-2.45Zm-.86,2.46.86-.87.86.87-.86.86Z" transform="translate(9.09 -494.86)"/><path class="cls-15" d="M675.47,526.62,673,529.08l2.45,2.45,2.46-2.45Zm-.86,2.46.86-.87.87.87-.87.86Z" transform="translate(9.09 -494.86)"/><path class="cls-12" d="M679.3,516.75l-2.46,2.46,2.46,2.45,2.45-2.45Zm-.87,2.46.87-.87.86.87-.86.86Z" transform="translate(9.09 -494.86)"/><path class="cls-12" d="M683.12,520.57,680.66,523l2.46,2.45,2.45-2.45Zm-.87,2.46.87-.87.86.87-.86.86Z" transform="translate(9.09 -494.86)"/><path class="cls-12" d="M668.87,538h-.79v-1.45l-.52.69h-.09l-.51-.69V538h-.78v-3.21h.27l1.07,1.38,1.07-1.38h.28Z" transform="translate(9.09 -494.86)"/><path class="cls-12" d="M671.28,538l-.14-.4h-.91l-.14.4h-.82v0l1.22-3.19h.4L672.1,538v0Zm-.36-1a5.62,5.62,0,0,1-.24-.9,7.61,7.61,0,0,1-.22.9Z" transform="translate(9.09 -494.86)"/><path class="cls-12" d="M674,538l-.41-1h-.3v1h-.79v-3.18h1.12a1,1,0,0,1,1.08,1.12,1,1,0,0,1-.38.86l.54,1.16v0Zm-.38-1.68c.19,0,.32-.16.32-.4s-.13-.38-.32-.38h-.35v.78Z" transform="translate(9.09 -494.86)"/><path class="cls-12" d="M676.23,536.07a.71.71,0,0,0,.35-.05c.12-.07.16-.26.23-.64s.36-.71,1-.55v.56a.25.25,0,0,0-.3.23,2.29,2.29,0,0,1-.32.85c.25.47.48.95.74,1.42V538h-.9l-.53-1.23h-.29V538h-.79v-3.19h.79Z" transform="translate(9.09 -494.86)"/><path class="cls-12" d="M678.55,538v-.68h.32V535.5h-.29v-.67H680v.67h-.29v1.84H680V538Z" transform="translate(9.09 -494.86)"/><path class="cls-12" d="M681.59,536h.85v.73h-.85v.52h1V538H680.8v-3.19h1.72v.72h-.93Z" transform="translate(9.09 -494.86)"/><path class="cls-12" d="M684.43,537.27h1V538h-2.15v-.12l1-2.35h-.91v-.72h2V535Z" transform="translate(9.09 -494.86)"/><path class="cls-12" d="M687,536h.84v.73H687v.52h1V538h-1.75v-3.19h1.72v.72H687Z" transform="translate(9.09 -494.86)"/><path class="cls-12" d="M688.78,538V534.8H689l1.34,1.55v-1.52h.79V538h-.22l-1.37-1.58V538Z" transform="translate(9.09 -494.86)"/><path class="cls-12" d="M692.87,536.74V538h-.79v-3.19h.79V536h.72v-1.15h.79V538h-.79v-1.28Z" transform="translate(9.09 -494.86)"/><path class="cls-12" d="M696.38,538.06a1.66,1.66,0,1,1,1.39-1.64C697.77,537.41,697.21,538.06,696.38,538.06Zm0-.78c.36,0,.59-.35.59-.86s-.23-.86-.59-.86-.62.35-.62.86S696,537.28,696.38,537.28Z" transform="translate(9.09 -494.86)"/><path class="cls-12" d="M699.13,538h-.79v-3.19h1.71v.72h-.92v.71h.81V537h-.81Z" transform="translate(9.09 -494.86)"/><path class="cls-16" d="M773.31,521.64c.18,0,.62.05.62.3v.24h-.35v-.11c0-.09-.15-.11-.26-.11a.4.4,0,0,0-.42.44.44.44,0,0,0,.44.5c.07,0,.26,0,.26-.11v-.12h.34v.25c0,.23-.41.3-.62.3a.79.79,0,0,1-.82-.8A.78.78,0,0,1,773.31,521.64Z" transform="translate(9.09 -494.86)"/><path class="cls-16" d="M774.14,522.92h.17v-1h-.17v-.28h1.18v.45H775V522h-.31v.31h.45v.3h-.45v.32H775v-.15h.33v.45h-1.21Z" transform="translate(9.09 -494.86)"/><path class="cls-16" d="M775.55,522.92h.17v-1h-.17v-.28h.56l.48.81a.93.93,0,0,1,0,.1l0,.06h0v-.06a.41.41,0,0,1,0-.11v-.52h-.18v-.28h.74v.28H777v1.25h-.39l-.48-.8a.93.93,0,0,1,0-.1l0-.06h0v.06a.41.41,0,0,1,0,.11v.52h.18v.27h-.74Z" transform="translate(9.09 -494.86)"/><path class="cls-16" d="M777.67,522.92h.17v-1h-.18v.22h-.32v-.52h1.39v.52h-.32V522h-.18v1h.17v.27h-.73Z" transform="translate(9.09 -494.86)"/><path class="cls-16" d="M778.88,522.92h.17v-1h-.17v-.28h.7a1.39,1.39,0,0,1,.3,0,.42.42,0,0,1,.31.43.44.44,0,0,1-.25.42h0l0,0a.11.11,0,0,1,.06.07l.12.23a.11.11,0,0,0,.1,0h0v.27h-.25c-.12,0-.17,0-.21-.11l-.19-.36c0-.05-.06-.06-.13-.06h-.08v.26h.16v.27h-.72Zm.73-.56a.18.18,0,0,0,.2-.2.17.17,0,0,0-.09-.17.26.26,0,0,0-.14,0h-.14v.4Z" transform="translate(9.09 -494.86)"/><path class="cls-16" d="M780.57,521.94h-.17v-.28h.73v.28H781v.67a.29.29,0,0,0,0,.17.25.25,0,0,0,.23.11.23.23,0,0,0,.22-.11.29.29,0,0,0,0-.17v-.67h-.17v-.28H782v.28h-.17v.67a.65.65,0,0,1-.12.4.69.69,0,0,1-.53.21.68.68,0,0,1-.52-.21.58.58,0,0,1-.13-.4Z" transform="translate(9.09 -494.86)"/><path class="cls-16" d="M782.18,522.92h.17l.08-1h-.18v-.28h.61l.25.76,0,.11s0,0,0,.05h0s0,0,0-.05a.53.53,0,0,0,0-.11l.26-.76h.6v.28h-.17l.08,1h.17v.27h-.69v-.27h.15l0-.56v-.17h0a.13.13,0,0,1,0,.06.26.26,0,0,1,0,.11l-.2.56H783l-.2-.56a.61.61,0,0,1,0-.11.13.13,0,0,1,0-.06h0v.07a.34.34,0,0,1,0,.1l0,.56h.15v.27h-.69Z" transform="translate(9.09 -494.86)"/><path class="cls-16" d="M784.9,521.94h-.13v-.28h.68v.28h-.15l.2.67a.61.61,0,0,1,0,.11v.06h0v-.06a.52.52,0,0,1,0-.11l.2-.67h-.15v-.28h.68v.28h-.13l-.44,1.25h-.39Z" transform="translate(9.09 -494.86)"/><path class="cls-16" d="M787.2,521.64a.78.78,0,0,1,.81.78.81.81,0,0,1-1.62,0A.78.78,0,0,1,787.2,521.64Zm0,1.25a.43.43,0,0,0,.41-.47.42.42,0,0,0-.41-.45.43.43,0,0,0-.41.45A.44.44,0,0,0,787.2,522.89Z" transform="translate(9.09 -494.86)"/><path class="cls-16" d="M789,521.64a.77.77,0,0,1,.8.78.78.78,0,0,1-.8.8.79.79,0,0,1-.81-.8A.78.78,0,0,1,789,521.64Zm0,1.25a.44.44,0,0,0,.41-.47A.43.43,0,0,0,789,522a.42.42,0,0,0-.41.45A.43.43,0,0,0,789,522.89Z" transform="translate(9.09 -494.86)"/><path class="cls-16" d="M789.94,522.92h.17v-1h-.17v-.28h.69a1.42,1.42,0,0,1,.31,0,.42.42,0,0,1,.31.43.44.44,0,0,1-.25.42h0l0,0a.11.11,0,0,1,.06.07l.12.23a.11.11,0,0,0,.1,0h.05v.27h-.25a.21.21,0,0,1-.22-.11l-.18-.36c0-.05-.06-.06-.14-.06h-.07v.26h.16v.27h-.72Zm.73-.56a.18.18,0,0,0,.2-.2.17.17,0,0,0-.09-.17.28.28,0,0,0-.15,0h-.13v.4Z" transform="translate(9.09 -494.86)"/><path class="cls-16" d="M772.54,525.26h.17v-1h-.17V524h.67a1.08,1.08,0,0,1,.32,0,.7.7,0,0,1,.51.73.73.73,0,0,1-.46.72,1.07,1.07,0,0,1-.37,0h-.67Zm.66,0a.45.45,0,0,0,.24,0,.53.53,0,0,0,0-.85.49.49,0,0,0-.21,0h-.11v.94Z" transform="translate(9.09 -494.86)"/><path class="cls-16" d="M774.23,525.26h.17v-1h-.17V524h1.18v.46h-.33v-.16h-.3v.32h.45v.3h-.45v.32h.33v-.16h.32v.46h-1.2Z" transform="translate(9.09 -494.86)"/><path class="cls-16" d="M776.17,525.26h.18v-1h-.18V524h.67v.28h-.11v.33h.13l.22-.33H777V524h.63v.28h-.13l-.33.44h0a.05.05,0,0,1,0,0,.49.49,0,0,1,.08.1l.17.35a.11.11,0,0,0,.1,0h.06v.28h-.26a.19.19,0,0,1-.21-.12l-.23-.46s0-.05-.11-.05h0v.35h.16v.28h-.72Z" transform="translate(9.09 -494.86)"/><path class="cls-16" d="M777.91,524.28h-.17V524h.72v.28h-.17V525a.39.39,0,0,0,0,.17.25.25,0,0,0,.23.11.23.23,0,0,0,.22-.11.29.29,0,0,0,0-.17v-.67h-.17V524h.73v.28h-.17V525a.64.64,0,0,1-.13.4.65.65,0,0,1-.52.21.67.67,0,0,1-.52-.2.56.56,0,0,1-.13-.41Z" transform="translate(9.09 -494.86)"/><path class="cls-16" d="M779.54,525.26h.17v-1h-.17V524h.56l.48.82,0,.1V525h0v-.06a.37.37,0,0,1,0-.11v-.52h-.18V524h.74v.28H781v1.26h-.38l-.48-.81,0-.1,0-.06h0v.06a.45.45,0,0,1,0,.11v.52h.18v.28h-.74Z" transform="translate(9.09 -494.86)"/><path class="cls-16" d="M781.71,525v.12c0,.08.1.12.22.12s.2,0,.2-.12-.17-.16-.33-.22-.4-.18-.4-.46.28-.45.55-.45.52.1.52.29v.23h-.34v-.1c0-.06-.08-.09-.18-.09s-.16,0-.16.11.12.14.26.2.47.17.47.46-.3.48-.59.48-.57-.12-.57-.37V525Z" transform="translate(9.09 -494.86)"/><path class="cls-16" d="M783,525.26h.18v-1H783v.22h-.32V524H784v.52h-.32v-.22h-.18v1h.17v.28H783Z" transform="translate(9.09 -494.86)"/><path class="cls-16" d="M784.2,525.26h.17v-1h-.17V524h1.18v.46h-.32v-.16h-.31v.32h.45v.3h-.45v.32h.33v-.16h.32v.46h-1.2Z" transform="translate(9.09 -494.86)"/><path class="cls-16" d="M785.61,525.26h.17v-1h-.17V524h.56l.48.82a.42.42,0,0,1,0,.1l0,.05h0v-.06a.37.37,0,0,1,0-.11v-.52h-.18V524h.73v.28h-.17v1.26h-.38l-.48-.81-.05-.1,0-.06h0v.69h.18v.28h-.73Z" transform="translate(9.09 -494.86)"/><path class="cls-12" d="M763.43,527.55c1.14,0,3.81.35,3.81,1.88v1.49h-2.11v-.72c0-.53-1-.68-1.6-.68a2.5,2.5,0,0,0-2.6,2.75c0,2,1.16,3,2.73,3,.43,0,1.57-.1,1.57-.67v-.72h2.11v1.51c0,1.44-2.54,1.86-3.85,1.86a4.87,4.87,0,1,1-.06-9.74Z" transform="translate(9.09 -494.86)"/><path class="cls-12" d="M767.81,535.42h1.06v-6h-1.06V527.7h4.1v1.72h-.68v2H772l1.39-2h-.72V527.7h3.88v1.72h-.79l-2,2.7v0a1.36,1.36,0,0,1,.24.17,2.31,2.31,0,0,1,.49.67l1.07,2.13a.61.61,0,0,0,.58.3h.41v1.71H775c-.79,0-1.08-.22-1.33-.69l-1.42-2.88c-.11-.25-.3-.3-.65-.3h-.32v2.16h1v1.71h-4.41Z" transform="translate(9.09 -494.86)"/><path class="cls-12" d="M777,535.42h1.05v-6H777V527.7h4.4a5.24,5.24,0,0,1,1.73.2,2.32,2.32,0,0,1,1.65,2.26,2.25,2.25,0,0,1-1.12,2v0a2.09,2.09,0,0,1,1.5,2.16,2.69,2.69,0,0,1-2.09,2.64,5.69,5.69,0,0,1-1.42.13H777Zm4.57-4.06a.8.8,0,0,0,.84-.91.88.88,0,0,0-.44-.82,1.43,1.43,0,0,0-.58-.08h-1v1.81Zm.2,3.93a1.15,1.15,0,0,0,.44-.08,1.08,1.08,0,0,0,.56-1,.89.89,0,0,0-1-1h-1.38v2.09Z" transform="translate(9.09 -494.86)"/><polygon class="cls-16" points="784.62 31.38 784.62 31.82 785.86 32.38 787.09 31.82 787.09 31.38 784.62 31.38"/></svg>