<?xml version="1.0" encoding="utf-8"?>
<!-- Generator: Adobe Illustrator 19.2.0, SVG Export Plug-In . SVG Version: 6.00 Build 0)  -->
<svg version="1.1" id="Desktop" xmlns="http://www.w3.org/2000/svg" xmlns:xlink="http://www.w3.org/1999/xlink" x="0px" y="0px"
	 viewBox="0 0 280 30" style="enable-background:new 0 0 280 30;" xml:space="preserve">
<style type="text/css">
	.st0{fill:#F5AFBC;}
</style>
<g>
	<g>
		<polygon class="st0" points="110.78,13.5 113.78,16.5 0,16.5 0,13.5 		"/>
		<polygon class="st0" points="280,13.5 280,16.5 166.22,16.5 169.22,13.5 		"/>
	</g>
	<path class="st0" d="M149.2,9.06l2.68-2.68l2.68,2.68l-2.68,2.69L149.2,9.06z M151.88,1.42l-7.64,7.64l7.64,7.64l7.64-7.64
		L151.88,1.42z M125.43,9.06l2.69-2.68l2.68,2.68l-2.68,2.69L125.43,9.06z M128.12,1.42l-7.64,7.64l7.64,7.64l7.64-7.64L128.12,1.42
		z M140,13.3l-7.64,7.64l7.64,7.64l7.64-7.64L140,13.3z M137.31,20.94l2.68-2.68l2.68,2.68L140,23.62L137.31,20.94z"/>
</g>
</svg>
